<?xml version="1.0" encoding="utf-8"?>
<!-- Generator: Adobe Adobe Illustrator 24.2.0, SVG Export Plug-In . SVG Version: 6.00 Build 0)  -->
<svg version="1.1" id="ĎŽÓť_1" xmlns="http://www.w3.org/2000/svg" xmlns:xlink="http://www.w3.org/1999/xlink" x="0px" y="0px"
	 viewBox="0 0 255.53 250.56" style="enable-background:new 0 0 255.53 250.56;" xml:space="preserve">
<style type="text/css">
	.st0{fill:#FFFFFF;}
	.st1{fill:#1A1A1A;}
	.st2{fill:#F5003A;}
	.st3{fill:none;stroke:#191919;stroke-width:6.8;stroke-linecap:round;stroke-linejoin:round;stroke-miterlimit:10;}
	.st4{fill:none;stroke:#191919;stroke-width:7.2077;stroke-linecap:round;stroke-linejoin:round;stroke-miterlimit:10;}
	.st5{fill:#BFBFBF;}
	.st6{fill:#B1B1B1;}
	.st7{fill:none;stroke:#191919;stroke-width:6.8161;stroke-linecap:round;stroke-linejoin:round;stroke-miterlimit:10;}
	.st8{fill:#FFFFFF;stroke:#191919;stroke-width:6.8;stroke-linecap:round;stroke-linejoin:round;stroke-miterlimit:10;}
	.st9{fill:none;stroke:#E7833E;stroke-width:5;stroke-linecap:round;stroke-linejoin:round;stroke-miterlimit:10;}
	.st10{fill:#E7833E;}
</style>
<g>
	<g>
		<g>
			<polygon class="st9" points="236.82,123.8 127.77,34.59 18.71,123.8 3.4,105.23 127.77,3.4 252.13,105.23 			"/>
		</g>
		<polyline class="st9" points="179.22,23.82 179.22,8.88 208.75,8.88 208.75,67.79 		"/>
		<line class="st9" x1="218.75" y1="223.82" x2="218.75" y2="137.61"/>
		<line class="st9" x1="36.78" y1="137.61" x2="36.78" y2="223.82"/>
		<rect x="141.32" y="138.94" class="st9" width="50.57" height="47.44"/>
		<rect x="63.64" y="138.94" class="st9" width="50.57" height="84.88"/>
		<path class="st9" d="M30.72,223.82c-4.23,0-7.66,3.43-7.66,7.66v15.68h209.42v-15.68c0-4.23-3.43-7.66-7.66-7.66H30.72z"/>
		<path class="st9" d="M143.4,91.59c0,8.63-7,15.63-15.63,15.63s-15.63-7-15.63-15.63s7-15.63,15.63-15.63"/>
		<line class="st9" x1="166.6" y1="138.94" x2="166.6" y2="186.38"/>
	</g>
	<g>
		<g>
			<g>
				<path class="st10" d="M238.94,123.04c-3.61-2.95-7.22-5.9-10.83-8.86c-8.7-7.12-17.4-14.23-26.1-21.35
					c-10.49-8.58-20.99-17.17-31.48-25.75c-9.09-7.44-18.19-14.88-27.28-22.32c-4.38-3.58-8.65-7.4-13.18-10.78
					c-0.06-0.05-0.12-0.1-0.18-0.15c-1.11-0.91-3.27-0.59-4.31,0.26c-3.61,2.95-7.22,5.9-10.83,8.86
					c-8.7,7.12-17.4,14.23-26.1,21.35c-10.49,8.58-20.99,17.17-31.48,25.75c-9.09,7.44-18.19,14.88-27.28,22.32
					c-2.97,2.43-5.94,4.86-8.91,7.29c-1.42,1.16-2.92,2.26-4.28,3.5c-0.06,0.05-0.12,0.1-0.18,0.15c1.53,0.01,3.05,0.01,4.58,0.02
					c-4.47-5.42-8.94-10.84-13.4-16.26c-0.64-0.77-1.27-1.54-1.91-2.31c-0.06,0.33-0.13,0.65-0.19,0.98
					c4.15-3.4,8.3-6.79,12.44-10.19c9.89-8.1,19.78-16.2,29.67-24.29c11.95-9.79,23.91-19.58,35.86-29.36
					c10.38-8.5,20.77-17.01,31.15-25.51c3.4-2.78,6.8-5.57,10.2-8.35c1.6-1.31,3.3-2.57,4.83-3.96c0.07-0.06,0.14-0.11,0.21-0.17
					c-1.44,0.09-2.87,0.18-4.31,0.26c4.15,3.4,8.3,6.79,12.44,10.19c9.89,8.1,19.78,16.2,29.67,24.29
					c11.95,9.79,23.91,19.58,35.86,29.36c10.38,8.5,20.77,17.01,31.15,25.51c3.4,2.78,6.8,5.57,10.2,8.35
					c1.06,0.87,2.12,1.73,3.17,2.6c0.52,0.43,1.07,1.03,1.66,1.36c0.07,0.04,0.14,0.12,0.21,0.17c-0.03-0.42-0.05-0.84-0.08-1.26
					c-4.47,5.42-8.94,10.84-13.4,16.26c-0.64,0.77-1.27,1.54-1.91,2.31c-1.45,1.76,3.37,2.23,4.39,1
					c4.47-5.42,8.94-10.84,13.4-16.26c0.64-0.77,1.27-1.54,1.91-2.31c0.37-0.45,0.4-0.87-0.08-1.26c-4.15-3.4-8.3-6.79-12.44-10.19
					c-9.89-8.1-19.78-16.2-29.67-24.29c-11.95-9.79-23.91-19.58-35.86-29.36c-10.38-8.5-20.77-17.01-31.15-25.51
					c-3.4-2.78-6.8-5.57-10.2-8.35c-1.61-1.31-3.17-2.71-4.83-3.96c-0.07-0.05-0.14-0.11-0.21-0.17c-1.11-0.91-3.27-0.59-4.31,0.26
					c-4.15,3.4-8.3,6.79-12.44,10.19c-9.89,8.1-19.78,16.2-29.67,24.29C71.51,47.17,59.55,56.96,47.6,66.75
					c-10.38,8.5-20.77,17.01-31.15,25.51c-3.4,2.78-6.8,5.57-10.2,8.35c-1.6,1.31-3.32,2.55-4.83,3.96
					c-0.07,0.06-0.14,0.11-0.21,0.17c-0.24,0.2-0.43,0.7-0.19,0.98c4.47,5.42,8.94,10.84,13.4,16.26c0.64,0.77,1.27,1.54,1.91,2.31
					c1.01,1.23,3.45,0.94,4.58,0.02c3.61-2.95,7.22-5.9,10.83-8.86c8.7-7.12,17.4-14.23,26.1-21.35
					c10.49-8.58,20.99-17.17,31.48-25.75c9.09-7.44,18.19-14.88,27.28-22.32c2.97-2.43,5.94-4.86,8.91-7.29
					c1.42-1.16,2.92-2.27,4.28-3.5c0.06-0.05,0.12-0.1,0.18-0.15c-1.44,0.09-2.87,0.18-4.31,0.26c3.61,2.95,7.22,5.9,10.83,8.86
					c8.7,7.12,17.4,14.23,26.1,21.35c10.49,8.58,20.99,17.17,31.48,25.75c9.09,7.44,18.19,14.88,27.28,22.32
					c4.38,3.58,8.65,7.4,13.18,10.78c0.06,0.05,0.12,0.1,0.18,0.15c0.87,0.71,2.45,0.61,3.44,0.24
					C238.9,124.53,239.82,123.76,238.94,123.04z"/>
			</g>
		</g>
		<g>
			<path class="st10" d="M181.71,23.67c0-4.98,0-9.96,0-14.94c-0.81,0.47-1.61,0.94-2.42,1.4c8.63,0,17.27,0,25.9,0
				c1.21,0,2.42,0,3.63,0c-0.86-0.37-1.71-0.73-2.57-1.1c0,6.63,0,13.25,0,19.88c0,10.57,0,21.14,0,31.71c0,2.44,0,4.88,0,7.32
				c0,1.69,4.99,1.49,4.99-0.3c0-6.63,0-13.25,0-19.88c0-10.57,0-21.14,0-31.71c0-2.44,0-4.88,0-7.32c0-1.05-1.95-1.1-2.57-1.1
				c-8.63,0-17.27,0-25.9,0c-1.21,0-2.42,0-3.63,0c-0.76,0-2.42,0.4-2.42,1.4c0,4.98,0,9.96,0,14.94
				C176.72,25.66,181.71,25.46,181.71,23.67L181.71,23.67z"/>
		</g>
		<g>
			<path class="st10" d="M221.25,223.67c0-2.85,0-5.7,0-8.55c0-6.85,0-13.7,0-20.55c0-8.29,0-16.59,0-24.88c0-7.21,0-14.42,0-21.62
				c0-2.36,0-4.73,0-7.09c0-1.08,0.16-2.3,0-3.37c-0.01-0.05,0-0.1,0-0.15c0-1.69-4.99-1.49-4.99,0.3c0,2.85,0,5.7,0,8.55
				c0,6.85,0,13.7,0,20.55c0,8.29,0,16.59,0,24.88c0,7.21,0,14.42,0,21.62c0,2.36,0,4.73,0,7.09c0,1.08-0.16,2.3,0,3.37
				c0.01,0.05,0,0.1,0,0.15C216.26,225.66,221.25,225.46,221.25,223.67L221.25,223.67z"/>
		</g>
		<g>
			<path class="st10" d="M34.29,137.76c0,2.85,0,5.7,0,8.55c0,6.85,0,13.7,0,20.55c0,8.29,0,16.59,0,24.88c0,7.21,0,14.42,0,21.62
				c0,2.36,0,4.73,0,7.09c0,1.08-0.16,2.3,0,3.37c0.01,0.05,0,0.1,0,0.15c0,1.69,4.99,1.49,4.99-0.3c0-2.85,0-5.7,0-8.55
				c0-6.85,0-13.7,0-20.55c0-8.29,0-16.59,0-24.88c0-7.21,0-14.42,0-21.62c0-2.36,0-4.73,0-7.09c0-1.08,0.16-2.3,0-3.37
				c-0.01-0.05,0-0.1,0-0.15C39.28,135.76,34.29,135.97,34.29,137.76L34.29,137.76z"/>
		</g>
		<g>
			<path class="st10" d="M191.81,185.13c-5.69,0-11.37,0-17.06,0c-9.07,0-18.15,0-27.22,0c-2.1,0-4.19,0-6.29,0
				c0.86,0.37,1.71,0.73,2.57,1.1c0-5.33,0-10.65,0-15.98c0-8.54,0-17.07,0-25.61c0-1.95,0-3.9,0-5.84
				c-0.81,0.47-1.61,0.94-2.42,1.4c5.69,0,11.37,0,17.06,0c9.07,0,18.15,0,27.22,0c2.1,0,4.19,0,6.29,0
				c-0.86-0.37-1.71-0.73-2.57-1.1c0,5.33,0,10.65,0,15.98c0,8.54,0,17.07,0,25.61c0,1.95,0,3.9,0,5.84c0,1.69,4.99,1.49,4.99-0.3
				c0-5.33,0-10.65,0-15.98c0-8.54,0-17.07,0-25.61c0-1.95,0-3.9,0-5.84c0-1.05-1.95-1.1-2.57-1.1c-5.69,0-11.37,0-17.06,0
				c-9.07,0-18.15,0-27.22,0c-2.1,0-4.19,0-6.29,0c-0.76,0-2.42,0.4-2.42,1.4c0,5.33,0,10.65,0,15.98c0,8.54,0,17.07,0,25.61
				c0,1.95,0,3.9,0,5.84c0,1.05,1.95,1.1,2.57,1.1c5.69,0,11.37,0,17.06,0c9.07,0,18.15,0,27.22,0c2.1,0,4.19,0,6.29,0
				c0.75,0,2.45-0.39,2.42-1.4C194.35,185.17,192.47,185.13,191.81,185.13z"/>
		</g>
		<g>
			<path class="st10" d="M63.72,225.07c5.69,0,11.37,0,17.06,0c9.07,0,18.15,0,27.22,0c2.1,0,4.19,0,6.29,0
				c0.76,0,2.42-0.4,2.42-1.4c0-9.56,0-19.12,0-28.68c0-15.24,0-30.47,0-45.71c0-3.49,0-6.99,0-10.48c0-1.05-1.95-1.1-2.57-1.1
				c-5.69,0-11.37,0-17.06,0c-9.07,0-18.15,0-27.22,0c-2.1,0-4.19,0-6.29,0c-0.76,0-2.42,0.4-2.42,1.4c0,9.56,0,19.12,0,28.68
				c0,15.24,0,30.47,0,45.71c0,3.49,0,6.99,0,10.48c0,1.69,4.99,1.49,4.99-0.3c0-9.56,0-19.12,0-28.68c0-15.24,0-30.47,0-45.71
				c0-3.49,0-6.99,0-10.48c-0.81,0.47-1.61,0.94-2.42,1.4c5.69,0,11.37,0,17.06,0c9.07,0,18.15,0,27.22,0c2.1,0,4.19,0,6.29,0
				c-0.86-0.37-1.71-0.73-2.57-1.1c0,9.56,0,19.12,0,28.68c0,15.24,0,30.47,0,45.71c0,3.49,0,6.99,0,10.48
				c0.81-0.47,1.61-0.94,2.42-1.4c-5.69,0-11.37,0-17.06,0c-9.07,0-18.15,0-27.22,0c-2.1,0-4.19,0-6.29,0
				c-0.75,0-2.45,0.39-2.42,1.4C61.18,225.03,63.06,225.07,63.72,225.07z"/>
		</g>
		<g>
			<path class="st10" d="M30.64,222.57c-3.29,0.07-6.57,1.45-8.51,4.18c-1.17,1.65-1.57,3.53-1.57,5.52c0,3.75,0,7.49,0,11.24
				c0,1.27,0,2.54,0,3.81c0,1.05,1.95,1.1,2.57,1.1c1.87,0,3.75,0,5.62,0c5.07,0,10.15,0,15.22,0c7.5,0,15,0,22.49,0
				c9.19,0,18.37,0,27.56,0c10.02,0,20.04,0,30.07,0c10.12,0,20.23,0,30.35,0c9.47,0,18.95,0,28.42,0c7.97,0,15.95,0,23.92,0
				c5.76,0,11.51,0,17.27,0c2.71,0,5.43,0.06,8.15,0c0.12,0,0.23,0,0.35,0c0.76,0,2.42-0.4,2.42-1.4c0-3.88,0-7.77,0-11.65
				c0-1.4,0.04-2.81,0-4.21c-0.11-3.67-2.66-6.78-6.08-7.95c-2.92-1-6.56-0.63-9.62-0.63c-5.53,0-11.05,0-16.58,0
				c-8.19,0-16.38,0-24.57,0c-9.86,0-19.72,0-29.58,0c-10.52,0-21.05,0-31.57,0c-10.22,0-20.44,0-30.67,0c-8.83,0-17.66,0-26.49,0
				c-6.47,0-12.95,0-19.42,0c-3.11,0-6.23-0.06-9.34,0C30.91,222.57,30.77,222.57,30.64,222.57c-0.75,0-2.45,0.39-2.42,1.4
				c0.03,1.06,1.91,1.1,2.57,1.1c2.11,0,4.21,0,6.32,0c5.67,0,11.33,0,17,0c8.24,0,16.48,0,24.73,0c9.84,0,19.67,0,29.51,0
				c10.45,0,20.9,0,31.34,0c10.04,0,20.08,0,30.12,0c8.73,0,17.47,0,26.2,0c6.4,0,12.8,0,19.21,0c3.09,0,6.18-0.01,9.27,0
				c0.19,0,0.75,0.08,0.1,0c3.3,0.39,5.34,3.38,5.4,6.57c0.08,3.91,0,7.84,0,11.75c0,1.31,0,2.61,0,3.92
				c0.81-0.47,1.61-0.94,2.42-1.4c-1.87,0-3.75,0-5.62,0c-5.07,0-10.15,0-15.22,0c-7.5,0-15,0-22.49,0c-9.19,0-18.37,0-27.56,0
				c-10.02,0-20.04,0-30.07,0c-10.12,0-20.23,0-30.35,0c-9.47,0-18.95,0-28.42,0c-7.97,0-15.95,0-23.92,0c-5.76,0-11.51,0-17.27,0
				c-2.71,0-5.44-0.09-8.15,0c-0.12,0-0.23,0-0.35,0c0.86,0.37,1.71,0.73,2.57,1.1c0-3.81,0-7.62,0-11.43c0-1.41-0.03-2.83,0-4.24
				c0.06-2.94,2.04-6.2,5.24-6.27c0.75-0.02,2.45-0.38,2.42-1.4C33.18,222.62,31.3,222.55,30.64,222.57z"/>
		</g>
		<g>
			<path class="st10" d="M140.9,91.74c-0.09,8.32-7.74,16.44-16.43,13.67c-8.74-2.79-12.29-13.57-7.89-21.33
				c2.32-4.09,6.53-6.81,11.25-6.86c0.75-0.01,2.45-0.39,2.42-1.4c-0.03-1.05-1.91-1.11-2.57-1.1c-5.49,0.06-11.03,2.41-14.46,6.79
				c-3.29,4.2-4.47,9.8-2.88,14.93c3.45,11.12,17.19,15.06,26.93,9.54c5.25-2.98,8.54-8.5,8.61-14.53
				C145.91,89.75,140.92,89.94,140.9,91.74L140.9,91.74z"/>
		</g>
		<g>
			<path class="st10" d="M164.11,139.09c0,5.33,0,10.65,0,15.98c0,8.54,0,17.07,0,25.61c0,1.95,0,3.9,0,5.84
				c0,1.69,4.99,1.49,4.99-0.3c0-5.33,0-10.65,0-15.98c0-8.54,0-17.07,0-25.61c0-1.95,0-3.9,0-5.84
				C169.1,137.1,164.11,137.3,164.11,139.09L164.11,139.09z"/>
		</g>
	</g>
</g>
</svg>
