<?xml version="1.0" encoding="utf-8"?>
<!-- Generator: Adobe Adobe Illustrator 24.2.0, SVG Export Plug-In . SVG Version: 6.00 Build 0)  -->
<svg version="1.1" xmlns="http://www.w3.org/2000/svg" xmlns:xlink="http://www.w3.org/1999/xlink" x="0px" y="0px"
	 viewBox="0 0 129.72 146.98" style="enable-background:new 0 0 129.72 146.98;" xml:space="preserve">
<style type="text/css">
	.st0{fill:#FFDC00;}
	.st1{fill:#4B4B4B;}
	.st2{fill:#E7833E;}
</style>
<g id="_x2014_ŽÓť_x5F_1">
</g>
<g id="Layer_2">
	<g>
		<g>
			<path class="st2" d="M105.6,145.93H24.12c-0.94,0-1.7-0.76-1.7-1.7V2.76c0-0.94,0.76-1.7,1.7-1.7h81.48c0.94,0,1.7,0.76,1.7,1.7
				v141.47C107.3,145.17,106.54,145.93,105.6,145.93z M25.82,142.53h78.08V4.46H25.82V142.53z"/>
		</g>
		<g>
			<path class="st2" d="M94.74,87.8c-0.94,0-1.7-0.76-1.7-1.7V60.89c0-0.94,0.76-1.7,1.7-1.7c0.94,0,1.7,0.76,1.7,1.7V86.1
				C96.44,87.04,95.68,87.8,94.74,87.8z"/>
		</g>
	</g>
</g>
</svg>
