<?xml version="1.0" encoding="utf-8"?>
<!-- Generator: Adobe Adobe Illustrator 24.2.0, SVG Export Plug-In . SVG Version: 6.00 Build 0)  -->
<svg version="1.1" id="ĎŽÓť_1" xmlns="http://www.w3.org/2000/svg" xmlns:xlink="http://www.w3.org/1999/xlink" x="0px" y="0px"
	 viewBox="0 0 260.94 222" style="enable-background:new 0 0 260.94 222;" xml:space="preserve">
<style type="text/css">
	.st0{fill:#1A1A1A;}
	.st1{fill:#F5003A;}
	.st2{fill:#FFFFFF;}
	.st3{fill:none;stroke:#E7833E;stroke-width:6.8;stroke-linecap:round;stroke-linejoin:round;stroke-miterlimit:10;}
	.st4{fill:none;stroke:#E7833E;stroke-width:7.2077;stroke-linecap:round;stroke-linejoin:round;stroke-miterlimit:10;}
	.st5{fill:#BFBFBF;stroke:#E7833E;stroke-miterlimit:10;}
	.st6{fill:#B1B1B1;stroke:#E7833E;stroke-miterlimit:10;}
	.st7{fill:none;stroke:#E7833E;stroke-width:6.8161;stroke-linecap:round;stroke-linejoin:round;stroke-miterlimit:10;}
	.st8{fill:#FFFFFF;stroke:#E7833E;stroke-width:6.8;stroke-linecap:round;stroke-linejoin:round;stroke-miterlimit:10;}
</style>
<g>
	<path class="st3" d="M88.33,36.59c-40.36,16.59-68.79,56.3-68.79,102.64v24.86"/>
	<path class="st3" d="M241.4,164.1v-24.86c0-51.54-35.15-94.86-82.78-107.32"/>
	<path class="st3" d="M153.89,86.8l4.73-54.89l0.27-3.16c0.63-7.36-3.78-14.16-10.27-15.57c-11.11-2.41-24.51-2.37-36.28,0.17
		c-6.58,1.42-11.1,8.22-10.42,15.68l7.18,79.24c1.12,12.33,10.39,21.71,21.47,21.71l0,0c11.11,0,20.41-9.45,21.48-21.82"/>
	<path class="st3" d="M244.48,210.96H16.47c-7.22,0-13.07-5.85-13.07-13.07v-5.77c0-7.22,5.85-13.07,13.07-13.07h228.01
		c7.22,0,13.07,5.85,13.07,13.07v5.77C257.54,205.11,251.69,210.96,244.48,210.96z"/>
	<path class="st3" d="M202.99,81.29c-1.49,23.32-6.41,46.39-17.61,64.74"/>
	<path class="st3" d="M58.14,81.29c1.49,23.32,6.41,46.39,17.61,64.74"/>
</g>
</svg>
