<?xml version="1.0" encoding="utf-8"?>
<!-- Generator: Adobe Adobe Illustrator 24.2.0, SVG Export Plug-In . SVG Version: 6.00 Build 0)  -->
<svg version="1.1" id="Layer_1" xmlns="http://www.w3.org/2000/svg" xmlns:xlink="http://www.w3.org/1999/xlink" x="0px" y="0px"
	 viewBox="0 0 118.26 123.01" style="enable-background:new 0 0 118.26 123.01;" xml:space="preserve">
<style type="text/css">
	.st0{fill:#E7833E;}
</style>
<g>
	<g>
		<path class="st0" d="M6.69,92.96C3,92.96,0,89.96,0,86.27V58.08c0-3.69,3-6.69,6.69-6.69c3.69,0,6.69,3,6.69,6.69v28.19
			C13.38,89.96,10.38,92.96,6.69,92.96z M6.69,54.79c-1.81,0-3.29,1.47-3.29,3.29v28.19c0,1.81,1.47,3.29,3.29,3.29
			c1.81,0,3.29-1.47,3.29-3.29V58.08C9.97,56.26,8.5,54.79,6.69,54.79z"/>
	</g>
	<g>
		<path class="st0" d="M84.01,34.47c-4.3,0-8.45-1.82-11.37-4.98c-1.08-1.17-2.66-1.84-4.34-1.84H42.6c-1.68,0-3.26,0.67-4.34,1.84
			c-2.92,3.17-7.07,4.98-11.37,4.98c-4.21,0-8.15-1.66-11.09-4.69c-2.94-3.02-4.49-7.01-4.37-11.23c0.22-7.87,6.54-14.46,14.38-15
			c4.71-0.32,9.23,1.47,12.43,4.92c1.1,1.19,2.69,1.87,4.37,1.87h25.7c1.68,0,3.27-0.68,4.37-1.87c3.2-3.45,7.72-5.24,12.43-4.92
			l0,0c7.85,0.54,14.17,7.13,14.38,15c0.12,4.22-1.44,8.21-4.38,11.23C92.16,32.8,88.22,34.47,84.01,34.47z M42.6,24.24H68.3
			c2.63,0,5.12,1.07,6.84,2.94c2.28,2.47,5.51,3.89,8.87,3.89c3.29,0,6.36-1.3,8.65-3.66c2.29-2.36,3.5-5.47,3.41-8.76
			c-0.17-6.14-5.1-11.28-11.21-11.7c-3.67-0.25-7.21,1.15-9.7,3.84c-1.74,1.88-4.24,2.96-6.86,2.96H42.6
			c-2.62,0-5.12-1.08-6.86-2.96c-2.49-2.69-6.03-4.08-9.7-3.84c-6.12,0.42-11.04,5.56-11.21,11.7c-0.09,3.29,1.12,6.4,3.41,8.76
			c2.29,2.36,5.37,3.66,8.65,3.66c3.36,0,6.59-1.42,8.87-3.89C37.48,25.31,39.97,24.24,42.6,24.24z"/>
	</g>
	<g>
		<path class="st0" d="M63.93,13.75H46.97c-0.94,0-1.7-0.76-1.7-1.7v-1.87C45.27,4.57,49.84,0,55.45,0
			c5.61,0,10.18,4.57,10.18,10.18v1.87C65.63,12.98,64.87,13.75,63.93,13.75z M48.67,10.34h13.55v-0.16c0-3.74-3.04-6.78-6.77-6.78
			c-3.74,0-6.78,3.04-6.78,6.78V10.34z"/>
	</g>
	<g>
		<path class="st0" d="M63.93,53.93c-0.23,0-0.45-0.05-0.67-0.14c-2.48-1.06-5.11-1.59-7.81-1.59c-2.7,0-5.33,0.54-7.81,1.59
			c-0.53,0.22-1.13,0.17-1.61-0.15c-0.48-0.32-0.76-0.85-0.76-1.42V25.94c0-0.94,0.76-1.7,1.7-1.7h16.95c0.94,0,1.7,0.76,1.7,1.7
			v26.29c0,0.57-0.29,1.1-0.76,1.42C64.58,53.84,64.25,53.93,63.93,53.93z M48.67,27.65V49.8c2.19-0.67,4.46-1,6.78-1
			s4.58,0.34,6.77,1V27.65H48.67z"/>
	</g>
	<g>
		<path class="st0" d="M112.55,123.01H92.38c-3.15,0-5.71-2.56-5.71-5.71V95.65c0-4.24-3.45-7.68-7.68-7.68h-6.31
			c-4.43,4.83-10.66,7.58-17.22,7.58s-12.79-2.75-17.22-7.58H11.68c-0.94,0-1.7-0.76-1.7-1.7V58.08c0-0.94,0.76-1.7,1.7-1.7h26.55
			c4.43-4.83,10.66-7.58,17.22-7.58s12.79,2.75,17.22,7.58h6.08c21.79,0,39.51,17.73,39.51,39.51v21.41
			C118.26,120.44,115.7,123.01,112.55,123.01z M71.91,84.57h7.08c6.11,0,11.09,4.97,11.09,11.09v21.64c0,1.27,1.04,2.31,2.31,2.31
			h20.17c1.27,0,2.31-1.04,2.31-2.31V95.89c0-19.91-16.2-36.11-36.11-36.11h-6.84c-0.5,0-0.97-0.22-1.29-0.59
			c-3.81-4.44-9.33-6.98-15.17-6.98s-11.36,2.55-15.17,6.98c-0.32,0.38-0.8,0.59-1.29,0.59H13.38v24.79h25.61
			c0.5,0,0.97,0.22,1.29,0.59c3.81,4.44,9.33,6.98,15.17,6.98c5.83,0,11.36-2.55,15.17-6.98C70.94,84.78,71.41,84.57,71.91,84.57z"
			/>
	</g>
</g>
</svg>
