<?xml version="1.0" encoding="utf-8"?>
<!-- Generator: Adobe Adobe Illustrator 24.2.0, SVG Export Plug-In . SVG Version: 6.00 Build 0)  -->
<svg version="1.1" xmlns="http://www.w3.org/2000/svg" xmlns:xlink="http://www.w3.org/1999/xlink" x="0px" y="0px"
	 viewBox="0 0 129.72 146.98" style="enable-background:new 0 0 129.72 146.98;" xml:space="preserve">
<style type="text/css">
	.st0{fill:#FFDC00;}
	.st1{fill:#4B4B4B;}
	.st2{fill:#E7833E;}
</style>
<g id="_x2014_ŽÓť_x5F_1">
</g>
<g id="Layer_2">
	<g>
		<g>
			<path class="st2" d="M28.67,146.98c-0.15,0-0.31-0.01-0.46-0.03c-1.17-0.14-2.2-0.8-2.81-1.8c-0.55-0.9-0.7-1.99-0.43-3
				c1-3.66,0.44-7.61-1.54-10.85L9.86,109.07c-1.07-1.76-3.09-2.73-5.13-2.49c-1.63,0.2-3.25-0.59-4.11-2
				c-1.02-1.67-0.77-3.81,0.62-5.2l32.92-32.92c2.24-2.24,5.88-2.24,8.12,0L53.12,77.3c2.89,2.89,4.69,6.73,5.07,10.8l2.13,22.72
				c0.33,3.54-0.92,7.01-3.44,9.53l-25.52,25.52C30.64,146.59,29.68,146.98,28.67,146.98z M5.35,103.14c3,0,5.83,1.56,7.42,4.16
				l13.58,22.23c2.46,4.03,3.16,8.96,1.91,13.52c-0.03,0.11-0.01,0.23,0.05,0.33c0.09,0.14,0.22,0.19,0.31,0.2
				c0.09,0.01,0.23,0,0.35-0.12l25.52-25.52c1.8-1.79,2.69-4.27,2.45-6.8L54.8,88.42c-0.31-3.28-1.76-6.38-4.09-8.71L39.88,68.87
				c-0.44-0.44-1.03-0.68-1.65-0.68c-0.62,0-1.21,0.24-1.65,0.68L3.65,101.8c-0.27,0.27-0.32,0.69-0.12,1.01v0
				c0.17,0.27,0.48,0.43,0.8,0.39C4.67,103.16,5.01,103.14,5.35,103.14z"/>
		</g>
		<g>
			<path class="st2" d="M38.7,124.06c-0.22,0-0.45-0.01-0.68-0.04c-1.72-0.21-3.23-1.17-4.13-2.65l-12.98-21.25v0
				c-1.84-3.01-1.38-6.86,1.11-9.36l6.53-6.53c1.23-1.23,2.92-1.81,4.64-1.61c1.72,0.21,3.23,1.17,4.13,2.65l8.17,13.37
				c4.68,7.66,3.51,17.43-2.83,23.78C41.6,123.48,40.19,124.06,38.7,124.06z M23.82,98.34l12.98,21.25
				c0.36,0.58,0.95,0.96,1.63,1.04c0.68,0.08,1.34-0.15,1.83-0.63c5.23-5.23,6.19-13.29,2.33-19.59l-8.17-13.37
				c-0.36-0.58-0.95-0.96-1.63-1.05c-0.68-0.08-1.35,0.15-1.83,0.63l-6.53,6.53C23.06,94.54,22.8,96.67,23.82,98.34L23.82,98.34z"/>
		</g>
		<g>
			<path class="st2" d="M58.66,113.37c-0.69,0-1.34-0.42-1.6-1.11c-0.33-0.88,0.12-1.86,1-2.19l7.05-2.62l0.02-6.96
				c0-0.71,0.44-1.34,1.11-1.59l6.52-2.42l0.02-6.96c0-0.71,0.44-1.34,1.11-1.59l6.52-2.42l0.02-6.96c0-0.71,0.44-1.34,1.11-1.59
				l6.52-2.42l0.02-6.96c0-0.71,0.44-1.34,1.11-1.59l6.52-2.42l0.02-6.96c0-0.71,0.44-1.34,1.11-1.59l6.52-2.42l0.02-6.96
				c0-0.71,0.44-1.34,1.11-1.59l6.52-2.42l0.02-6.96c0-0.71,0.44-1.34,1.11-1.59l6.52-2.42l0.02-6.96c0-0.71,0.44-1.34,1.11-1.59
				l5.14-1.91l-16.6-16.6c-0.21-0.21-0.54-0.21-0.75,0L42.28,68.87c-0.66,0.66-1.74,0.66-2.41,0c-0.66-0.67-0.66-1.74,0-2.41
				l65.32-65.32c1.53-1.53,4.03-1.53,5.56,0l18.47,18.47c0.41,0.41,0.58,1,0.46,1.57c-0.12,0.57-0.53,1.03-1.07,1.23l-6.52,2.42
				l-0.02,6.96c0,0.71-0.44,1.34-1.11,1.59l-6.52,2.42l-0.02,6.96c0,0.71-0.44,1.34-1.11,1.59l-6.52,2.42l-0.02,6.96
				c0,0.71-0.44,1.34-1.11,1.59l-6.52,2.42l-0.02,6.96c0,0.71-0.44,1.34-1.11,1.59l-6.52,2.42l-0.02,6.96
				c0,0.71-0.44,1.34-1.11,1.59l-6.52,2.42l-0.02,6.96c0,0.71-0.44,1.34-1.11,1.59l-6.52,2.42l-0.02,6.96
				c0,0.71-0.44,1.34-1.11,1.59l-6.52,2.42l-0.02,6.96c0,0.71-0.44,1.34-1.11,1.59l-8.16,3.03
				C59.06,113.33,58.86,113.37,58.66,113.37z"/>
		</g>
		<g>
			<path class="st2" d="M104.76,20.72c-1.11-1.11-1.11-2.9,0-4.01c1.11-1.11,2.9-1.11,4.01,0c1.11,1.11,1.11,2.9,0,4.01
				C107.66,21.83,105.86,21.83,104.76,20.72z"/>
		</g>
	</g>
</g>
</svg>
