<?xml version="1.0" encoding="utf-8"?>
<!-- Generator: Adobe Adobe Illustrator 24.2.0, SVG Export Plug-In . SVG Version: 6.00 Build 0)  -->
<svg version="1.1" xmlns="http://www.w3.org/2000/svg" xmlns:xlink="http://www.w3.org/1999/xlink" x="0px" y="0px"
	 viewBox="0 0 168.44 105.66" style="enable-background:new 0 0 168.44 105.66;" xml:space="preserve">
<style type="text/css">
	.st0{display:none;}
	.st1{display:inline;}
	.st2{fill:#FFDC00;}
	.st3{fill:#4B4B4B;}
	.st4{fill:#E7833E;}
</style>
<g id="_x2014_ŽÓť_x5F_1" class="st0">
</g>
<g id="Layer_2">
	<g>
		<g>
			<g>
				<g>
					<path class="st4" d="M42.96,80.1c-0.31,0-0.62-0.09-0.9-0.26L0.81,54.28C0.3,53.97,0,53.42,0,52.83c0-0.59,0.3-1.14,0.81-1.45
						l41.26-25.56c0.55-0.34,1.24-0.34,1.79,0l41.26,25.56c0.5,0.31,0.81,0.86,0.81,1.45c0,0.59-0.3,1.14-0.81,1.45L43.86,79.84
						C43.58,80.01,43.27,80.1,42.96,80.1z M4.93,52.83l38.03,23.56l38.03-23.56L42.96,29.27L4.93,52.83z"/>
				</g>
			</g>
		</g>
		<g>
			<g>
				<g>
					<path class="st4" d="M125.48,80.1c-0.31,0-0.62-0.09-0.9-0.26L83.33,54.28c-0.5-0.31-0.81-0.86-0.81-1.45
						c0-0.59,0.3-1.14,0.81-1.45l41.26-25.56c0.55-0.34,1.24-0.34,1.79,0l41.26,25.56c0.5,0.31,0.81,0.86,0.81,1.45
						c0,0.59-0.3,1.14-0.81,1.45l-41.26,25.56C126.1,80.01,125.79,80.1,125.48,80.1z M87.45,52.83l38.03,23.56l38.03-23.56
						l-38.03-23.56L87.45,52.83z"/>
				</g>
			</g>
		</g>
		<g>
			<g>
				<g>
					<path class="st4" d="M84.22,105.66c-0.31,0-0.62-0.09-0.9-0.26L42.07,79.84c-0.5-0.31-0.81-0.86-0.81-1.45
						c0-0.59,0.3-1.14,0.81-1.45l41.26-25.56c0.55-0.34,1.24-0.34,1.79,0l41.26,25.56c0.5,0.31,0.81,0.86,0.81,1.45
						c0,0.59-0.3,1.14-0.81,1.45L85.12,105.4C84.84,105.57,84.53,105.66,84.22,105.66z M46.19,78.39l38.03,23.56l38.03-23.56
						L84.22,54.83L46.19,78.39z"/>
				</g>
			</g>
		</g>
		<g>
			<g>
				<g>
					<path class="st4" d="M84.22,54.53c-0.31,0-0.62-0.09-0.9-0.26L42.07,28.71c-0.5-0.31-0.81-0.86-0.81-1.45s0.3-1.14,0.81-1.45
						L83.33,0.26c0.55-0.34,1.24-0.34,1.79,0l41.26,25.56c0.5,0.31,0.81,0.86,0.81,1.45s-0.3,1.14-0.81,1.45L85.12,54.28
						C84.84,54.45,84.53,54.53,84.22,54.53z M46.19,27.27l38.03,23.56l38.03-23.56L84.22,3.7L46.19,27.27z"/>
				</g>
			</g>
		</g>
	</g>
</g>
</svg>
