<?xml version="1.0" encoding="utf-8"?>
<!-- Generator: Adobe Adobe Illustrator 24.2.0, SVG Export Plug-In . SVG Version: 6.00 Build 0)  -->
<svg version="1.1" xmlns="http://www.w3.org/2000/svg" xmlns:xlink="http://www.w3.org/1999/xlink" x="0px" y="0px"
	 viewBox="0 0 108.6 123.24" style="enable-background:new 0 0 108.6 123.24;" xml:space="preserve">
<style type="text/css">
	.st0{fill:#FFDC00;}
	.st1{fill:#4B4B4B;}
	.st2{fill:#E7833E;}
</style>
<g id="_x2014_ŽÓť_x5F_1">
</g>
<g id="Layer_2">
	<g>
		<g>
			<path class="st2" d="M54.16,124.05H4.19c-2.31,0-4.19-1.88-4.19-4.19V72.38c0-2.31,1.88-4.19,4.19-4.19h49.97
				c0.94,0,1.7,0.76,1.7,1.7v52.46C55.86,123.29,55.1,124.05,54.16,124.05z M4.19,71.59c-0.43,0-0.78,0.35-0.78,0.78v47.49
				c0,0.43,0.35,0.78,0.78,0.78h48.27V71.59H4.19z"/>
		</g>
		<g>
			<path class="st2" d="M104.13,124.05H54.16c-0.94,0-1.7-0.76-1.7-1.7V69.89c0-0.94,0.76-1.7,1.7-1.7h52.46
				c0.94,0,1.7,0.76,1.7,1.7v49.97C108.32,122.17,106.44,124.05,104.13,124.05z M55.86,120.65h48.27c0.43,0,0.78-0.35,0.78-0.78
				V71.59H55.86V120.65z"/>
		</g>
		<g>
			<path class="st2" d="M106.62,71.59H54.16c-0.94,0-1.7-0.76-1.7-1.7V62.1c0-0.94,0.76-1.7,1.7-1.7c0.94,0,1.7,0.76,1.7,1.7v6.08
				h49.06V19.92c0-0.43-0.35-0.78-0.78-0.78H76.35c-0.94,0-1.7-0.76-1.7-1.7c0-0.94,0.76-1.7,1.7-1.7h27.78
				c2.31,0,4.19,1.88,4.19,4.19v49.97C108.32,70.83,107.56,71.59,106.62,71.59z"/>
		</g>
		<g>
			<path class="st2" d="M65.93,55.86H18.44c-2.31,0-4.19-1.88-4.19-4.19V4.19c0-2.31,1.88-4.19,4.19-4.19h47.49
				c2.31,0,4.19,1.88,4.19,4.19v47.49C70.11,53.98,68.24,55.86,65.93,55.86z M18.44,3.4c-0.43,0-0.78,0.35-0.78,0.78v47.49
				c0,0.43,0.35,0.78,0.78,0.78h47.49c0.43,0,0.78-0.35,0.78-0.78V4.19c0-0.43-0.35-0.78-0.78-0.78H18.44z"/>
		</g>
	</g>
</g>
</svg>
