<?xml version="1.0" encoding="utf-8"?>
<!-- Generator: Adobe Adobe Illustrator 24.2.0, SVG Export Plug-In . SVG Version: 6.00 Build 0)  -->
<svg version="1.1" id="ĎŽÓť_1" xmlns="http://www.w3.org/2000/svg" xmlns:xlink="http://www.w3.org/1999/xlink" x="0px" y="0px"
	 viewBox="0 0 255.53 250.56" style="enable-background:new 0 0 255.53 250.56;" xml:space="preserve">
<style type="text/css">
	.st0{fill:#1A1A1A;}
	.st1{fill:#F5003A;}
	.st2{fill:#FFFFFF;}
	.st3{fill:none;stroke:#E7833E;stroke-width:6.8;stroke-linecap:round;stroke-linejoin:round;stroke-miterlimit:10;}
	.st4{fill:none;stroke:#E7833E;stroke-width:7.2077;stroke-linecap:round;stroke-linejoin:round;stroke-miterlimit:10;}
	.st5{fill:#BFBFBF;stroke:#E7833E;stroke-miterlimit:10;}
	.st6{fill:#B1B1B1;stroke:#E7833E;stroke-miterlimit:10;}
	.st7{fill:none;stroke:#E7833E;stroke-width:6.8161;stroke-linecap:round;stroke-linejoin:round;stroke-miterlimit:10;}
	.st8{fill:#FFFFFF;stroke:#E7833E;stroke-width:6.8;stroke-linecap:round;stroke-linejoin:round;stroke-miterlimit:10;}
</style>
<g>
	<line class="st3" x1="208.85" y1="81.53" x2="28.03" y2="81.53"/>
	<line class="st3" x1="28.03" y1="8.69" x2="208.85" y2="8.69"/>
	<path class="st3" d="M210.87,45.11h12.04c9.98,0,18.07,8.09,18.07,18.07l0,26.48c0,9.98-8.09,18.07-18.07,18.07H129.4
		c-10.04,0-18.17,8.14-18.17,18.17v26.17"/>
	<path class="st3" d="M123.8,152.07l-25.14,0c-2.48,0-4.49,2.01-4.49,4.49l0,76.98c0,4.6,3.73,8.33,8.33,8.33h17.47
		c4.6,0,8.33-3.73,8.33-8.33l0-76.98C128.29,154.08,126.28,152.07,123.8,152.07z"/>
	<line class="st3" x1="179.18" y1="60.37" x2="37.04" y2="60.37"/>
	<path class="st3" d="M28.03,81.53c-7.44,0-13.47-16.31-13.47-36.42S20.59,8.69,28.03,8.69"/>
	<path class="st3" d="M208.69,81.53c-5.68,0-10.28-16.31-10.28-36.42s4.6-36.42,10.28-36.42"/>
	<path class="st3" d="M217.92,29.1c-1.67-12.09-5.18-20.41-9.24-20.41"/>
	<path class="st3" d="M208.69,81.53c4.06,0,7.57-8.33,9.24-20.43"/>
	<line class="st3" x1="111.23" y1="216.95" x2="111.23" y2="225.63"/>
</g>
</svg>
