<?xml version="1.0" encoding="utf-8"?>
<!-- Generator: Adobe Adobe Illustrator 24.2.0, SVG Export Plug-In . SVG Version: 6.00 Build 0)  -->
<svg version="1.1" id="Layer_1" xmlns="http://www.w3.org/2000/svg" xmlns:xlink="http://www.w3.org/1999/xlink" x="0px" y="0px"
	 viewBox="0 0 110.47 131.38" style="enable-background:new 0 0 110.47 131.38;" xml:space="preserve">
<style type="text/css">
	.st0{fill:#FF7B00;}
</style>
<g>
	<g>
		<path class="st0" d="M89.59,131.38h-68.7c-0.84,0-1.56-0.62-1.68-1.45L7.79,52.16c-0.07-0.49,0.07-0.99,0.4-1.36
			c0.32-0.37,0.79-0.59,1.29-0.59h91.51c0.49,0,0.96,0.22,1.29,0.59c0.32,0.37,0.47,0.87,0.4,1.36l-11.4,77.76
			C91.15,130.76,90.43,131.38,89.59,131.38z M22.35,127.98h65.76l10.91-74.36H11.45L22.35,127.98z"/>
	</g>
	<g>
		<path class="st0" d="M79.74,99.43c-1.8,0-3.55-0.67-4.89-1.89c-1.52-1.38-2.39-3.34-2.39-5.38V73.15c0-2.06-1.53-3.83-3.48-4.02
			c-1.1-0.11-2.16,0.24-2.98,0.99c-0.81,0.74-1.28,1.78-1.28,2.86v7.52c0,3.79-2.88,7.05-6.55,7.41c-2.04,0.2-4.08-0.47-5.6-1.85
			c-1.52-1.38-2.39-3.34-2.39-5.38V63.08c0-5.22-4.25-9.46-9.46-9.46c-0.94,0-1.7-0.76-1.7-1.7c0-0.94,0.76-1.7,1.7-1.7h60.27
			c0.49,0,0.96,0.22,1.29,0.59c0.32,0.37,0.47,0.87,0.4,1.36l-1.28,8.74c-0.12,0.84-0.84,1.46-1.68,1.46h-8.85
			c-2.13,0-3.87,1.73-3.87,3.87l0,25.77c0,3.79-2.88,7.05-6.55,7.41C80.21,99.42,79.97,99.43,79.74,99.43z M68.6,65.7
			c0.24,0,0.47,0.01,0.71,0.03c3.67,0.36,6.55,3.62,6.55,7.41v19.01c0,1.08,0.47,2.13,1.28,2.86c0.82,0.74,1.88,1.09,2.98,0.99
			c1.95-0.19,3.48-1.96,3.48-4.02l0-25.77c0-4.01,3.26-7.27,7.27-7.27h7.38l0.78-5.33H49.43c2.55,2.35,4.16,5.72,4.16,9.46v17.59
			c0,1.08,0.47,2.13,1.28,2.86c0.82,0.74,1.88,1.09,2.98,0.99c1.95-0.19,3.48-1.96,3.48-4.02v-7.52c0-2.04,0.87-4,2.39-5.38
			C65.05,66.37,66.8,65.7,68.6,65.7z"/>
	</g>
	<g>
		<path class="st0" d="M108.77,61.26c-0.94,0-1.7-0.76-1.7-1.7v-6.12c0-27.59-23.25-50.03-51.83-50.03
			C26.65,3.4,3.4,25.85,3.4,53.43v6.12c0,0.94-0.76,1.7-1.7,1.7c-0.94,0-1.7-0.76-1.7-1.7v-6.12C0,23.97,24.78,0,55.23,0
			c30.46,0,55.23,23.97,55.23,53.43v6.12C110.47,60.49,109.7,61.26,108.77,61.26z"/>
	</g>
</g>
</svg>
