<?xml version="1.0" encoding="utf-8"?>
<!-- Generator: Adobe Adobe Illustrator 24.2.0, SVG Export Plug-In . SVG Version: 6.00 Build 0)  -->
<svg version="1.1" xmlns="http://www.w3.org/2000/svg" xmlns:xlink="http://www.w3.org/1999/xlink" x="0px" y="0px"
	 viewBox="0 0 116.79 149.42" style="enable-background:new 0 0 116.79 149.42;" xml:space="preserve">
<style type="text/css">
	.st0{fill:#FFDC00;}
	.st1{fill:#4B4B4B;}
	.st2{fill:#E7833E;}
</style>
<g id="_x2014_ŽÓť_x5F_1">
</g>
<g id="Layer_2">
	<g>
		<g>
			<path class="st2" d="M49.17,149.42c-2.28,0-4.53-0.91-6.22-2.66c-16.97-17.64-31.27-37.14-41.37-56.39
				c-2.82-5.38-1.82-11.89,2.5-16.2L48.45,29.8c0.66-0.66,1.74-0.66,2.41,0l16.61,16.61c0.43,0.43,0.6,1.07,0.44,1.66
				c-4.67,16.85-13.84,32.97-26.53,46.59c-1.39,1.49-1.72,3.63-0.86,5.44c5.82,12.23,14.02,22.84,24.34,31.53
				c1.61,1.36,2.44,3.34,2.26,5.44c-0.17,2.08-1.35,3.95-3.15,5.01l-10.43,6.13C52.17,149.03,50.67,149.42,49.17,149.42z
				 M49.65,33.41L6.49,76.57c-3.26,3.25-4.01,8.16-1.89,12.21c0,0,0,0,0,0c9.95,18.97,24.06,38.2,40.81,55.61
				c1.68,1.75,4.32,2.12,6.4,0.89l10.43-6.13c0.86-0.51,1.4-1.37,1.49-2.36c0.08-0.99-0.3-1.92-1.06-2.55
				c-10.7-9-19.19-19.99-25.23-32.67c-1.47-3.09-0.9-6.71,1.44-9.23C50.96,79.37,59.75,64.1,64.35,48.11L49.65,33.41z"/>
		</g>
		<g>
			<g>
				<path class="st2" d="M28.81,69c-0.44,0-0.87-0.17-1.2-0.5c-0.66-0.67-0.66-1.74,0-2.41l12.85-12.85c0.66-0.66,1.74-0.66,2.41,0
					c0.66,0.66,0.66,1.74,0,2.41L30.02,68.51C29.68,68.84,29.25,69,28.81,69z"/>
			</g>
			<g>
				<path class="st2" d="M36.71,76.9c-0.44,0-0.87-0.17-1.2-0.5c-0.66-0.66-0.66-1.74,0-2.41l12.85-12.85
					c0.66-0.66,1.74-0.66,2.41,0c0.66,0.66,0.66,1.74,0,2.41L37.91,76.4C37.58,76.74,37.15,76.9,36.71,76.9z"/>
			</g>
		</g>
		<g>
			<path class="st2" d="M108,98.14c-2.25,0-4.5-0.86-6.21-2.57L78.94,72.72c-1.16,1.12-2.68,1.72-4.31,1.72
				c-1.66-0.02-3.2-0.68-4.35-1.87c-2.3-2.38-2.22-6.28,0.18-8.68l12.17-12.17c1.16-1.16,2.69-1.79,4.33-1.79c0.02,0,0.04,0,0.06,0
				c1.66,0.01,3.2,0.68,4.35,1.87c2.24,2.33,2.22,6.09-0.01,8.5l22.86,22.86c3.43,3.43,3.43,9,0,12.42
				C112.5,97.29,110.25,98.14,108,98.14z M78.94,68.61c0.44,0,0.87,0.17,1.2,0.5l24.06,24.06c2.1,2.1,5.51,2.1,7.61,0
				c2.1-2.1,2.1-5.51,0-7.61L87.75,61.5c-0.66-0.66-0.66-1.74,0-2.41l1.03-1.03c1.1-1.1,1.16-2.85,0.14-3.91
				c-0.51-0.53-1.2-0.83-1.93-0.83c-0.01,0-0.02,0-0.03,0c-0.73,0-1.41,0.28-1.92,0.8L72.87,66.29c-1.1,1.1-1.16,2.85-0.14,3.91
				c0.51,0.53,1.2,0.83,1.93,0.83c0.72,0.02,1.42-0.28,1.94-0.8l1.13-1.13C78.07,68.77,78.5,68.61,78.94,68.61z"/>
		</g>
		<g>
			<path class="st2" d="M66.58,49.64c-0.44,0-0.87-0.17-1.2-0.5L48.45,32.21c-0.66-0.66-0.66-1.74,0-2.41l9.69-9.69
				c2.02-2.02,4.57-3.35,7.39-3.84l8.36-1.46c2-0.35,4.06,0.3,5.5,1.74l1.65,1.65c1.44,1.44,2.09,3.49,1.74,5.5l-1.46,8.36
				c-0.49,2.81-1.82,5.37-3.84,7.39l-9.69,9.69C67.45,49.47,67.01,49.64,66.58,49.64z M52.06,31.01l14.52,14.52l8.49-8.49
				c1.52-1.52,2.52-3.45,2.89-5.57l1.46-8.36c0.16-0.91-0.14-1.85-0.79-2.51l-1.65-1.65c-0.66-0.66-1.59-0.95-2.5-0.79l-8.36,1.46
				C63.99,20,62.07,21,60.55,22.52L52.06,31.01z"/>
		</g>
		<g>
			<path class="st2" d="M79,20.29c-0.44,0-0.87-0.17-1.2-0.5c-0.66-0.67-0.66-1.74,0-2.41L94.68,0.5c0.66-0.66,1.74-0.66,2.41,0
				c0.66,0.66,0.66,1.74,0,2.41L80.2,19.79C79.87,20.12,79.44,20.29,79,20.29z"/>
		</g>
		<g>
			<path class="st2" d="M77.7,60.76c-0.44,0-0.87-0.17-1.2-0.5L48.45,32.21c-0.66-0.66-0.66-1.74,0-2.41c0.66-0.66,1.74-0.66,2.41,0
				L78.9,57.85c0.66,0.67,0.66,1.74,0,2.41C78.57,60.59,78.13,60.76,77.7,60.76z"/>
		</g>
	</g>
</g>
</svg>
