<?xml version="1.0" encoding="utf-8"?>
<!-- Generator: Adobe Adobe Illustrator 24.2.0, SVG Export Plug-In . SVG Version: 6.00 Build 0)  -->
<svg version="1.1" id="Layer_1" xmlns="http://www.w3.org/2000/svg" xmlns:xlink="http://www.w3.org/1999/xlink" x="0px" y="0px"
	 viewBox="0 0 133.33 153.31" style="enable-background:new 0 0 133.33 153.31;" xml:space="preserve">
<style type="text/css">
	.st0{fill:#E7833E;}
</style>
<g>
	<g>
		<path class="st0" d="M66.67,153.31c-0.71,0-1.37-0.45-1.61-1.15c-0.3-0.89,0.17-1.86,1.06-2.16l20.67-7.04
			c0.89-0.3,1.86,0.17,2.16,1.06c0.3,0.89-0.17,1.86-1.06,2.16l-20.67,7.04C67.03,153.28,66.85,153.31,66.67,153.31z"/>
	</g>
	<g>
		<path class="st0" d="M45.99,149.43c-0.71,0-1.37-0.45-1.61-1.15c-0.3-0.89,0.17-1.86,1.06-2.16l41.34-14.08
			c0.89-0.3,1.86,0.17,2.16,1.06c0.3,0.89-0.17,1.86-1.06,2.16l-41.34,14.08C46.36,149.4,46.18,149.43,45.99,149.43z"/>
	</g>
	<g>
		<path class="st0" d="M45.99,138.51c-0.71,0-1.37-0.45-1.61-1.15c-0.3-0.89,0.17-1.86,1.06-2.16l41.34-14.08
			c0.89-0.3,1.86,0.17,2.16,1.06c0.3,0.89-0.17,1.86-1.06,2.16l-41.34,14.08C46.36,138.48,46.18,138.51,45.99,138.51z"/>
	</g>
	<g>
		<path class="st0" d="M45.99,127.59c-0.71,0-1.37-0.45-1.61-1.15c-0.3-0.89,0.17-1.86,1.06-2.16l41.34-14.08
			c0.89-0.3,1.86,0.17,2.16,1.06c0.3,0.89-0.17,1.86-1.06,2.16L46.54,127.5C46.36,127.56,46.18,127.59,45.99,127.59z"/>
	</g>
	<g>
		<path class="st0" d="M66.67,153.3c-0.19,0-0.37-0.03-0.55-0.09l-16.03-5.46c-0.69-0.23-1.15-0.88-1.15-1.61l0-34.44
			c0-4.75-2.18-9.24-5.99-12.31C34.02,92.18,28.9,81.47,28.9,70.01c0-10.46,4.18-20.18,11.76-27.39c7.58-7.2,17.53-10.87,28-10.33
			c9.56,0.49,18.48,4.51,25.1,11.31c6.62,6.8,10.4,15.82,10.65,25.39v0c0.31,11.86-4.8,22.93-14.02,30.39c-3.81,3.08-6,7.57-6,12.32
			v34.43c0,0.73-0.46,1.38-1.15,1.61l-16.03,5.46C67.04,153.27,66.85,153.3,66.67,153.3z M52.34,144.93l14.33,4.88l14.33-4.88
			v-33.22c0-5.78,2.65-11.24,7.26-14.97c8.39-6.78,13.04-16.86,12.76-27.65c-0.47-18.11-14.46-32.46-32.53-33.39
			c-9.54-0.49-18.58,2.85-25.48,9.4c-6.9,6.55-10.7,15.4-10.7,24.92c0,10.43,4.66,20.17,12.78,26.74c4.61,3.72,7.25,9.18,7.25,14.96
			L52.34,144.93z M82.69,146.14L82.69,146.14L82.69,146.14z"/>
	</g>
	<g>
		<path class="st0" d="M86.48,77.14c-0.73,0-1.4-0.47-1.62-1.2l-2.43-7.8l-6.68,8.36c-0.33,0.42-0.86,0.65-1.38,0.64
			c-0.53-0.01-1.03-0.28-1.34-0.71l-6.36-8.92l-6.36,8.92c-0.31,0.43-0.81,0.7-1.34,0.71c-0.53,0.01-1.04-0.22-1.38-0.64l-6.69-8.36
			l-2.43,7.8c-0.28,0.9-1.24,1.4-2.13,1.12c-0.9-0.28-1.4-1.23-1.12-2.13l3.39-10.86c0.19-0.6,0.69-1.05,1.31-1.17
			c0.62-0.11,1.25,0.12,1.64,0.61l7.28,9.1l6.44-9.03c0.32-0.45,0.84-0.71,1.39-0.71c0.55,0,1.07,0.27,1.39,0.71l6.44,9.03l7.28-9.1
			c0.39-0.49,1.02-0.72,1.64-0.61c0.62,0.12,1.12,0.57,1.31,1.17l3.39,10.86c0.28,0.9-0.22,1.85-1.12,2.13
			C86.82,77.11,86.65,77.14,86.48,77.14z"/>
	</g>
	<g>
		<path class="st0" d="M66.67,17.93c-0.94,0-1.7-0.76-1.7-1.7V1.7c0-0.94,0.76-1.7,1.7-1.7c0.94,0,1.7,0.76,1.7,1.7v14.52
			C68.37,17.17,67.61,17.93,66.67,17.93z"/>
	</g>
	<g>
		<path class="st0" d="M98.27,28.2c-0.35,0-0.7-0.11-1-0.33c-0.76-0.55-0.93-1.62-0.38-2.38l8.54-11.75
			c0.55-0.76,1.62-0.93,2.38-0.38c0.76,0.55,0.93,1.62,0.38,2.38L99.65,27.5C99.32,27.96,98.8,28.2,98.27,28.2z"/>
	</g>
	<g>
		<path class="st0" d="M117.81,55.09c-0.72,0-1.38-0.46-1.62-1.18c-0.29-0.89,0.2-1.85,1.09-2.14l13.81-4.49
			c0.89-0.29,1.85,0.2,2.14,1.09c0.29,0.89-0.2,1.85-1.09,2.14l-13.81,4.49C118.16,55.06,117.99,55.09,117.81,55.09z"/>
	</g>
	<g>
		<path class="st0" d="M131.63,92.82c-0.17,0-0.35-0.03-0.53-0.08l-13.81-4.49c-0.89-0.29-1.38-1.25-1.09-2.14
			c0.29-0.89,1.25-1.38,2.14-1.09l13.81,4.49c0.89,0.29,1.38,1.25,1.09,2.14C133.01,92.36,132.35,92.82,131.63,92.82z"/>
	</g>
	<g>
		<path class="st0" d="M35.06,28.2c-0.53,0-1.05-0.24-1.38-0.7l-8.54-11.75c-0.55-0.76-0.38-1.82,0.38-2.38
			c0.76-0.55,1.82-0.38,2.38,0.38l8.54,11.75c0.55,0.76,0.38,1.82-0.38,2.38C35.75,28.09,35.4,28.2,35.06,28.2z"/>
	</g>
	<g>
		<path class="st0" d="M15.52,55.09c-0.17,0-0.35-0.03-0.53-0.08L1.18,50.52c-0.89-0.29-1.38-1.25-1.09-2.14
			c0.29-0.89,1.25-1.38,2.14-1.09l13.81,4.49c0.89,0.29,1.38,1.25,1.09,2.14C16.9,54.63,16.23,55.09,15.52,55.09z"/>
	</g>
	<g>
		<path class="st0" d="M1.7,92.82c-0.72,0-1.38-0.46-1.62-1.18c-0.29-0.89,0.2-1.85,1.09-2.14l13.81-4.49
			c0.89-0.29,1.85,0.2,2.14,1.09c0.29,0.89-0.2,1.85-1.09,2.14L2.23,92.73C2.05,92.79,1.88,92.82,1.7,92.82z"/>
	</g>
</g>
</svg>
